PathFileType	4	(X/Y/Z)	C:\Users\Basilio\Documents\Thesis Gigler\squatting_fais\c3dfiles\041\SLS_pre_front3\markers_experimental.trc
DataRate	CameraRate	NumFrames	NumMarkers	Units	OrigDataRate	OrigDataStartFrame	OrigNumFrames
200.000000	200.000000	4	62	mm	200.000000	405	1622
Frame#	Time	FHD			LBHD			RBHD			C7			T10			CLAV			LSHO			LUUPA			LMUPA			LDUPA			LLEP			LMEP			LRAD			LUL			LRFIN			RSHO			RUPA1			RMUPA			RDUPA			RLEP			RMEP			RRAD			RUL			RUFIN			LASI			RASI			USACR			LSACR			RSACR			LTHI1			LTHI2			LTHI3			LTHI4			LLFC			LMFC			LTIB1			LTIB2			LTIB3			LTIB4			LLMAL			LMMAL			LHEE			LMT1			LMT2			LMT5			RTHI			RTHI2			RTHI3			RTHI4			RLFC			RMFC			RTIB1			RTIB2			RTIB3			RTIB4			RLMAL			RMMAL			RHEE			RMT1			RMT2			RMT5			*61			
		X1	Y1	Z1	X2	Y2	Z2	X3	Y3	Z3	X4	Y4	Z4	X5	Y5	Z5	X6	Y6	Z6	X7	Y7	Z7	X8	Y8	Z8	X9	Y9	Z9	X10	Y10	Z10	X11	Y11	Z11	X12	Y12	Z12	X13	Y13	Z13	X14	Y14	Z14	X15	Y15	Z15	X16	Y16	Z16	X17	Y17	Z17	X18	Y18	Z18	X19	Y19	Z19	X20	Y20	Z20	X21	Y21	Z21	X22	Y22	Z22	X23	Y23	Z23	X24	Y24	Z24	X25	Y25	Z25	X26	Y26	Z26	X27	Y27	Z27	X28	Y28	Z28	X29	Y29	Z29	X30	Y30	Z30	X31	Y31	Z31	X32	Y32	Z32	X33	Y33	Z33	X34	Y34	Z34	X35	Y35	Z35	X36	Y36	Z36	X37	Y37	Z37	X38	Y38	Z38	X39	Y39	Z39	X40	Y40	Z40	X41	Y41	Z41	X42	Y42	Z42	X43	Y43	Z43	X44	Y44	Z44	X45	Y45	Z45	X46	Y46	Z46	X47	Y47	Z47	X48	Y48	Z48	X49	Y49	Z49	X50	Y50	Z50	X51	Y51	Z51	X52	Y52	Z52	X53	Y53	Z53	X54	Y54	Z54	X55	Y55	Z55	X56	Y56	Z56	X57	Y57	Z57	X58	Y58	Z58	X59	Y59	Z59	X60	Y60	Z60	X61	Y61	Z61	X62	Y62	Z62	

406	2.025	-280.5049743652344	1787.084350585938	-1061.469360351563	-451.3230895996095	1704.879516601563	-1134.29541015625	-430.8245544433595	1711.446533203125	-982.5052490234377	-473.0181884765626	1549.080078125	-1065.688110351563	-465.3648071289064	1234.193969726563	-1046.859619140625	-309.2160949707032	1512.318603515625	-1070.212158203125	-414.4719238281251	1553.238647460938	-1212.824829101563	-323.0425415039063	1527.270629882813	-1348.792602539063	-278.8512878417969	1547.06298828125	-1337.319946289063	-270.3120117187501	1526.755493164063	-1394.794921875	-224.9558105468751	1524.286743164063	-1416.326416015625	-182.5106506347657	1456.81787109375	-1384.247314453125	56.39319610595705	1566.547485351563	-1426.4443359375	34.7307357788086	1565.767578125	-1496.857177734375	115.9284439086914	1612.353393554688	-1443.03466796875	-396.1961669921876	1572.78955078125	-932.4589843750002	-266.4401855468751	1545.187377929688	-795.0616455078127	-243.4541931152344	1577.422607421875	-826.3485107421877	-200.1470947265626	1568.291015625	-786.930847167969	-155.1061248779297	1573.647094726563	-780.3400878906252	-129.2229156494141	1498.314453125	-813.4755859375002	112.4352722167969	1598.963623046875	-830.6541137695315	106.7373962402344	1598.893798828125	-754.9664306640626	185.4904022216797	1630.833251953125	-829.8560791015627	-285.7124633789063	1055.138061523438	-1149.095703125	-295.0649719238282	1064.057861328125	-923.3984375000002	-470.5414428710939	1114.933227539063	-1044.226928710938	-481.0356445312501	1085.777709960938	-1069.674438476563	-485.125213623047	1088.958374023438	-1015.314453125	-364.6292419433594	828.825378417969	-1201.587280273438	-318.1477050781251	758.6915893554689	-1190.14453125	-271.8060913085938	769.8155517578127	-1180.583740234375	-337.4585571289063	702.6489868164064	-1178.429931640625	-296.1018371582032	529.3910522460939	-1146.675415039063	-295.4189758300782	520.9230957031251	-1027.650024414063	-286.5266723632813	340.7610473632813	-1075.839599609375	-334.3663940429688	298.5828247070313	-1138.218139648438	-298.6096496582032	292.4772644042969	-1109.696899414063	-313.2780151367188	218.4526824951172	-1071.75537109375	-381.3677978515626	131.2174987792969	-1107.308349609375	-345.7598571777344	138.2240447998047	-1025.331787109375	-448.0640869140626	116.698112487793	-1064.191528320313	-242.3114776611329	63.28475952148439	-1038.822998046875	-235.9071044921876	58.27970123291017	-1084.430297851563	-284.6393432617188	44.18685531616212	-1136.951416015625	-314.1123046875001	801.159606933594	-830.442321777344	-258.0621337890626	765.3466186523439	-829.6481933593752	-229.4580993652344	776.800964355469	-839.5942993164065	-256.5990905761719	680.3732299804689	-832.4412841796877	-226.7037353515626	571.7410278320314	-823.8824462890627	-206.8321533203126	538.1537475585939	-935.921813964844	-224.2201690673829	404.7867736816407	-805.540466308594	-322.2150268554688	350.4184570312501	-790.9151000976565	-277.5427856445313	338.6139831542969	-785.290222167969	-263.9160461425782	282.7588806152344	-803.0751953125002	-346.6712646484376	187.2350311279297	-778.602233886719	-306.0521240234376	181.1704254150391	-854.6503906250002	-407.2024230957032	170.8005676269532	-836.355895996094	-215.6462554931641	72.59348297119142	-814.0886230468752	-214.0444641113282	79.65073394775392	-761.8579711914064	-266.9074707031251	83.33077239990236	-721.6854858398439	-4216.689941406251	853.0551757812502	-3944.704589843751	
407	2.03	-280.3000488281251	1787.193359375	-1062.029174804688	-451.2957153320314	1704.867431640625	-1134.953491210938	-430.7229919433595	1711.558349609375	-983.593444824219	-473.0108337402345	1549.174926757813	-1066.348876953125	-465.4771728515626	1234.327514648438	-1047.302124023438	-309.3403320312501	1512.345581054688	-1070.781494140625	-414.4013671875001	1553.385498046875	-1213.438720703125	-322.9966125488282	1527.633911132813	-1349.313598632813	-278.8453063964844	1547.315063476563	-1337.734619140625	-270.0256347656251	1526.977905273438	-1395.169189453125	-224.7154235839844	1524.693725585938	-1416.5791015625	-182.2270050048828	1457.397216796875	-1384.605224609375	56.47021865844728	1566.895263671875	-1426.957641601563	35.09110641479493	1566.2392578125	-1497.363037109375	116.1833877563477	1612.725463867188	-1443.602661132813	-396.2411499023439	1573.013671875	-933.1398925781252	-266.2821655273438	1545.873901367188	-795.955749511719	-243.5662689208985	1578.064697265625	-827.3698730468752	-200.1209869384766	1569.13818359375	-787.9314575195315	-154.9908752441407	1574.695922851563	-781.7832641601565	-129.3662719726563	1499.083618164063	-814.382751464844	112.5287628173828	1599.7275390625	-831.9682617187502	106.8299179077149	1599.982421875	-756.2542114257814	185.7351684570313	1631.484375	-831.1831054687502	-285.9430847167969	1055.172241210938	-1149.532470703125	-295.2509155273438	1064.228271484375	-923.8514404296877	-470.7657470703126	1114.990234375	-1044.7333984375	-481.1373901367189	1085.862915039063	-1070.066528320313	-485.2396850585939	1089.069580078125	-1015.644470214844	-364.9628295898438	828.9268188476565	-1201.871337890625	-317.9498596191407	758.4536743164064	-1190.378051757813	-272.2942810058594	769.9619750976565	-1180.778686523438	-337.8064880371094	702.7619628906251	-1178.697265625	-296.5935058593751	529.5311279296876	-1146.974975585938	-296.5639648437501	521.2187500000001	-1027.322998046875	-286.7873840332032	340.8029479980469	-1076.04931640625	-334.8041992187501	298.9321899414063	-1138.311157226563	-298.8041992187501	292.5734252929688	-1109.925415039063	-313.3340454101563	218.5044555664063	-1071.947021484375	-381.3797912597657	131.1961517333985	-1107.395263671875	-345.7374267578126	138.3051147460938	-1025.447509765625	-447.8094482421876	116.6277694702149	-1064.289184570313	-242.3189544677735	63.33094787597658	-1038.839599609375	-235.8356018066407	58.23905563354494	-1084.454223632813	-284.6553649902344	44.15878677368165	-1136.9833984375	-313.0308227539063	801.6104736328127	-830.8746337890627	-257.2434997558594	766.1570434570314	-830.016540527344	-228.3404541015626	777.692565917969	-840.042175292969	-254.8682403564454	680.9223632812501	-833.0278320312502	-224.8553771972657	572.4054565429689	-824.5540771484377	-204.2927856445313	538.8612060546876	-936.5980224609377	-222.8863830566407	405.6167297363282	-806.329040527344	-320.7240600585938	351.3766479492188	-792.1198730468752	-276.3203735351563	339.4177551269532	-785.984313964844	-262.3888549804688	283.6106567382813	-804.0977172851565	-345.4009399414063	187.9180908203125	-779.7383422851565	-304.7741088867188	181.8088989257813	-855.6513671875002	-405.7562255859376	171.5449371337891	-837.5999145507815	-213.7461547851563	73.66263580322267	-814.5152587890627	-212.6036682128907	80.88863372802736	-762.6561889648439	-265.9349975585938	84.29433441162111	-722.2942504882814	-4217.030273437501	853.0944824218752	-3944.672607421876	
408	2.035	-280.3416442871094	1787.259643554688	-1062.603271484375	-451.3081359863282	1705.005126953125	-1135.661254882813	-430.5959472656251	1711.66162109375	-984.2608032226565	-472.9072570800782	1549.264526367188	-1066.962158203125	-465.4925537109376	1234.466674804688	-1047.820556640625	-309.2414855957032	1512.480346679688	-1071.498168945313	-414.4367980957032	1553.5537109375	-1213.988403320313	-322.8100585937501	1527.828735351563	-1349.82177734375	-278.7270202636719	1547.592895507813	-1338.154174804688	-269.6671142578126	1527.332397460938	-1395.591796875	-224.5604858398438	1525.097290039063	-1416.974609375	-181.9858856201172	1457.784790039063	-1385.06494140625	56.93444824218751	1567.297119140625	-1427.522827148438	35.31710433959962	1566.68603515625	-1497.803466796875	116.2776031494141	1613.084106445313	-1444.099243164063	-396.318084716797	1572.93603515625	-933.717712402344	-266.2197265625001	1546.5576171875	-796.9794921875002	-243.4439239501954	1578.537963867188	-828.5336914062502	-200.1190185546876	1569.79248046875	-789.0342407226565	-154.7341461181641	1575.583129882813	-783.1550903320315	-128.9452514648438	1499.857788085938	-815.3723144531252	112.7201309204102	1600.361450195313	-833.2232055664065	107.0170059204102	1600.994506835938	-757.6764526367189	185.9912567138672	1632.182861328125	-832.6680297851565	-286.1156616210938	1055.200927734375	-1149.908203125	-295.4553833007813	1064.475219726563	-924.3265380859377	-471.0425720214845	1115.263061523438	-1045.119506835938	-481.588348388672	1086.048461914063	-1070.460205078125	-485.385711669922	1089.216430664063	-1015.993041992188	-365.2603759765626	829.008239746094	-1202.23388671875	-318.4029235839844	758.5657348632814	-1190.811279296875	-273.4298706054688	770.5809326171877	-1181.361450195313	-338.1117858886719	702.8546752929689	-1178.8916015625	-297.1593933105469	529.6527709960939	-1147.381713867188	-296.8362121582032	521.3523559570314	-1027.604370117188	-286.9757690429688	340.8677062988282	-1076.328369140625	-335.0446472167969	299.0514526367188	-1138.508422851563	-299.0443115234376	292.5832824707032	-1110.222045898438	-313.3695068359376	218.6507568359376	-1072.166259765625	-381.4114074707032	131.1920013427735	-1107.445678710938	-345.6810607910157	138.3313903808594	-1025.516479492188	-447.7832031250001	116.6972045898438	-1064.360107421875	-242.0864257812501	63.1118850708008	-1038.858032226563	-235.8415985107422	58.24094390869142	-1084.492797851563	-284.6497192382813	44.09283828735352	-1136.990356445313	-312.1519470214844	801.9966430664065	-831.116394042969	-255.8801422119141	766.7304077148439	-830.4378051757815	-227.4824676513672	778.210388183594	-840.5440063476565	-253.6222839355469	681.6524047851564	-833.365417480469	-223.5597534179688	573.2048950195314	-825.1470947265627	-202.8320770263672	539.7387695312501	-937.0562133789065	-221.4710235595704	406.4866333007814	-807.0252685546877	-319.5947570800782	352.2198486328126	-792.995544433594	-274.8395385742188	340.2124023437501	-787.0049438476565	-261.1150817871094	284.4133300781251	-804.9876098632815	-344.1924133300782	188.6200866699219	-780.7547607421877	-303.0043334960938	182.7083435058594	-856.649597167969	-404.2117309570314	171.9446716308594	-838.7750244140627	-211.7321319580079	75.01031494140626	-815.5079345703127	-210.9253692626954	82.20030212402345	-763.5462036132814	-264.2836608886719	85.50466918945314	-723.3648071289064	-4216.780761718751	853.1338500976565	-3944.757324218751	
409	2.04	-280.1635742187501	1787.367431640625	-1063.38232421875	-451.2904663085939	1705.125366210938	-1136.27880859375	-430.4795837402345	1711.774658203125	-984.882263183594	-472.7802124023439	1549.311767578125	-1067.592651367188	-465.5510559082032	1234.60302734375	-1048.253784179688	-309.2228393554688	1512.504028320313	-1072.149047851563	-414.4586181640626	1553.719482421875	-1214.475463867188	-322.5646057128907	1528.133178710938	-1350.28662109375	-278.5568542480469	1547.653076171875	-1338.72265625	-269.3392028808594	1527.62841796875	-1396.03515625	-224.2165679931641	1525.5556640625	-1417.328247070313	-181.8378448486328	1458.1865234375	-1385.447509765625	57.3948097229004	1567.763916015625	-1428.158447265625	35.45371627807618	1567.104370117188	-1498.246948242188	116.5493774414063	1613.327270507813	-1444.595947265625	-396.1907653808595	1573.355712890625	-934.772399902344	-266.0352172851563	1547.151245117188	-798.0598144531252	-243.3322296142579	1579.160522460938	-829.7100219726565	-199.7610321044922	1570.661254882813	-790.260437011719	-154.5773620605469	1576.310913085938	-784.2075195312502	-128.8015441894532	1500.651000976563	-816.5682373046877	112.825927734375	1601.119873046875	-834.4190673828127	107.0587005615235	1602.12890625	-758.7733764648439	185.922348022461	1632.849975585938	-833.8208007812502	-286.2651062011719	1055.244262695313	-1150.404663085938	-295.6053771972657	1064.626098632813	-924.6629028320315	-471.306121826172	1115.43798828125	-1045.518310546875	-481.7260131835939	1086.16748046875	-1070.80419921875	-485.5405273437501	1089.330322265625	-1016.432556152344	-365.6192626953126	829.1789550781252	-1202.482055664063	-319.3082885742188	758.9131469726564	-1191.247192382813	-273.7837219238282	770.6280517578127	-1181.76123046875	-338.4208068847657	702.9867553710939	-1179.055908203125	-297.5751953125001	529.6951904296876	-1147.638061523438	-297.1827697753907	521.4638671875001	-1027.909545898438	-287.1248474121094	340.8922119140626	-1076.690673828125	-335.3190002441407	299.1532592773438	-1138.638427734375	-299.4199523925782	292.5054931640626	-1110.489135742188	-313.4720458984376	218.7090454101563	-1072.398193359375	-381.2400817871094	130.9392242431641	-1107.586791992188	-345.6378173828126	138.4136657714844	-1025.597290039063	-447.8921813964845	116.643539428711	-1064.345336914063	-242.3399810791016	63.35771942138673	-1038.878295898438	-235.8881378173829	58.15144348144533	-1084.5009765625	-284.6746215820313	44.06278228759766	-1137.04541015625	-311.3539123535157	802.5325927734377	-831.4902954101565	-254.8796081542969	767.2277832031251	-831.4651489257815	-226.3703613281251	779.4063720703127	-840.2891845703127	-252.2294006347657	682.4881591796876	-833.7264404296877	-222.0922851562501	574.0220336914064	-825.8980102539065	-201.0532989501954	540.9002685546876	-937.8360595703127	-219.9546508789063	407.1954956054689	-807.657409667969	-318.0572204589844	353.0137023925782	-794.0659179687502	-273.4687194824219	341.0896911621094	-787.7844238281252	-259.5620727539063	285.1270141601563	-805.8606567382815	-342.7385253906251	189.0513153076172	-781.9231567382815	-300.8904113769532	183.5549774169922	-857.5134887695315	-402.8637695312501	172.3500671386719	-840.0335693359377	-209.7928466796876	76.68469238281251	-816.3311157226565	-208.5439453125001	83.4246292114258	-764.4730224609376	-262.3261108398438	86.43447113037111	-724.3153076171876	-4216.849609375001	853.162780761719	-3944.791992187501	
